<svg version="1.1" xmlns="http://www.w3.org/2000/svg" xmlns:xlink="http://www.w3.org/1999/xlink" width="113.58247" height="143.9162" viewBox="0,0,113.58247,143.9162"><g transform="translate(-183.20876,-108.0419)"><g data-paper-data="{&quot;isPaintingLayer&quot;:true}" fill="#4d97ff" fill-rule="nonzero" stroke="none" stroke-width="1" stroke-linecap="butt" stroke-linejoin="miter" stroke-miterlimit="10" stroke-dasharray="" stroke-dashoffset="0" style="mix-blend-mode: normal"><path d="M240.04304,108.0419c19.23078,0 34.82712,15.60699 34.82712,34.9109c0,8.97486 -3.29599,17.13502 -8.90686,23.27526c7.50584,4.37408 14.00288,10.5292 19.0604,17.9256c6.72027,9.90336 10.9477,22.14303 11.5892,35.40267c0.17833,1.35227 0.17833,2.66604 0.17833,3.75145v0.08339c0,10.46274 -8.3163,17.60383 -18.70848,21.97624c-10.56024,4.44169 -24.41224,6.59069 -38.08269,6.59069c-13.67045,0 -27.52207,-2.149 -38.08257,-6.59069c-10.39269,-4.37241 -18.70873,-11.5135 -18.70873,-21.97624c0,-24.7308 12.35745,-46.38501 30.85308,-57.17401c-5.5679,-6.14742 -8.92957,-14.34928 -8.92957,-23.26435c0,-19.30955 15.60135,-34.9109 34.91077,-34.9109z"/></g></g></svg>